<?xml version="1.0" standalone="no"?>
<!DOCTYPE svg PUBLIC "-//W3C//DTD SVG 20010904//EN"
 "http://www.w3.org/TR/2001/REC-SVG-20010904/DTD/svg10.dtd">
<svg version="1.0" xmlns="http://www.w3.org/2000/svg"
 width="200.000000pt" height="200.000000pt" viewBox="0 0 200.000000 200.000000"
 preserveAspectRatio="xMidYMid meet">
<metadata>
Created by potrace 1.11, written by Peter Selinger 2001-2013
</metadata>
<g transform="translate(0.000000,200.000000) scale(0.100000,-0.100000)"
fill="#000000" stroke="none">
<path d="M974 1699 c-3 -6 -15 -9 -27 -7 -14 2 -21 -2 -19 -10 2 -10 -2 -10
-17 0 -15 9 -24 9 -43 -3 -12 -8 -42 -21 -65 -29 -24 -7 -55 -26 -70 -42 -16
-16 -39 -39 -52 -51 -35 -33 -79 -100 -86 -133 -4 -16 -9 -36 -12 -44 -9 -22
-10 -28 -12 -51 -1 -13 -5 -18 -13 -13 -10 5 -10 4 -1 -6 8 -9 9 -19 2 -32 -7
-12 -6 -18 1 -18 6 0 9 -3 7 -7 -11 -18 16 -132 43 -188 29 -59 90 -135 108
-135 6 0 13 -7 16 -16 4 -9 9 -14 12 -11 4 3 13 -1 21 -9 8 -8 20 -11 26 -7
16 11 30 11 43 1 7 -5 13 -1 17 12 3 11 12 20 20 20 22 0 30 -17 11 -24 -8 -3
-12 -2 -9 4 3 6 1 10 -4 10 -19 0 -12 -28 9 -33 13 -3 21 1 25 15 9 25 35 5
30 -23 -2 -10 0 -19 6 -19 5 0 9 -7 9 -15 0 -14 25 -21 60 -16 38 4 77 13 100
21 14 4 36 11 50 14 38 8 120 64 168 115 47 50 88 127 96 181 7 47 14 78 21
101 4 10 2 19 -3 19 -15 0 -24 31 -13 44 26 33 -58 207 -133 273 -52 46 -163
102 -215 109 -20 2 -51 6 -68 8 -18 3 -35 0 -39 -5z m1 -80 c-4 -5 -14 -8 -23
-8 -15 1 -15 2 1 6 9 2 14 9 11 15 -4 7 -2 8 5 4 6 -4 9 -12 6 -17z m178 5
c-7 -3 -9 -12 -6 -20 6 -16 -23 -19 -45 -5 -11 7 -11 9 2 14 9 4 16 2 16 -3 0
-6 4 -10 10 -10 5 0 7 7 4 15 -4 10 0 15 12 14 11 0 14 -3 7 -5z m37 -24 c0
-5 -7 -10 -16 -10 -8 0 -12 5 -9 10 3 6 10 10 16 10 5 0 9 -4 9 -10z m-476
-135 c-9 -14 -18 -25 -21 -25 -5 0 5 18 20 38 17 22 18 13 1 -13z m577 8 c13
-16 12 -17 -3 -4 -10 7 -18 15 -18 17 0 8 8 3 21 -13z m-607 -54 c-4 -6 -13
-32 -20 -58 -14 -45 -14 -45 -8 -6 6 39 20 75 30 75 3 0 2 -5 -2 -11z m673
-121 c-3 -7 -5 -2 -5 12 0 14 2 19 5 13 2 -7 2 -19 0 -25z m0 -70 c-3 -8 -6
-5 -6 6 -1 11 2 17 5 13 3 -3 4 -12 1 -19z m-628 -191 c12 -15 12 -17 -3 -11
-9 3 -16 13 -16 22 0 8 1 13 3 11 1 -2 9 -12 16 -22z m545 -23 c3 -8 2 -12 -4
-9 -6 3 -10 10 -10 16 0 14 7 11 14 -7z m-24 -8 c0 -2 -8 -10 -17 -17 -16 -13
-17 -12 -4 4 13 16 21 21 21 13z m-465 -26 c10 -11 16 -20 13 -20 -3 0 -13 9
-23 20 -10 11 -16 20 -13 20 3 0 13 -9 23 -20z m395 -25 c0 -6 -56 -35 -67
-35 -4 1 8 9 27 20 39 22 40 22 40 15z m-425 -15 c3 -5 1 -10 -4 -10 -6 0 -11
5 -11 10 0 6 2 10 4 10 3 0 8 -4 11 -10z m52 -26 c-3 -3 -12 -4 -19 -1 -8 3
-5 6 6 6 11 1 17 -2 13 -5z m203 -29 c10 -12 9 -15 -5 -15 -11 0 -15 -5 -12
-14 4 -11 1 -13 -10 -9 -11 4 -14 2 -9 -5 4 -7 2 -12 -3 -12 -17 0 -13 14 9
37 14 15 16 23 7 26 -8 4 -8 6 -1 6 6 1 17 -6 24 -14z"/>
<path d="M800 879 c0 -15 18 -19 23 -6 3 8 -1 14 -9 14 -8 0 -14 -4 -14 -8z"/>
<path d="M910 877 c0 -10 -6 -17 -14 -15 -8 2 -15 -1 -16 -7 -2 -15 14 -16 33
-3 12 9 14 17 7 28 -8 13 -10 12 -10 -3z"/>
<path d="M1205 673 c-53 -6 -72 -12 -73 -25 -6 -54 -6 -166 0 -162 3 2 3 -9
-2 -25 -5 -19 -4 -33 3 -40 8 -8 7 -11 -2 -11 -10 0 -11 -3 -3 -13 6 -7 7 -18
3 -26 -10 -15 -6 -60 6 -72 26 -26 73 -15 81 18 9 41 9 93 1 93 -5 0 -9 5 -9
11 0 6 10 9 23 7 15 -2 30 -19 50 -58 35 -70 44 -79 87 -82 31 -3 35 0 33 20
-2 12 -14 40 -28 62 -29 46 -31 63 -10 80 8 7 15 19 15 27 0 8 4 12 9 9 4 -3
15 11 23 32 13 34 13 40 -6 77 -16 30 -31 43 -67 56 -52 20 -91 26 -134 22z
m114 -66 c0 -9 -2 -8 -6 1 -2 6 -10 9 -15 6 -7 -4 -8 -2 -4 5 9 13 26 5 25
-12z m-129 -7 c0 -5 -2 -10 -4 -10 -3 0 -8 5 -11 10 -3 6 -1 10 4 10 6 0 11
-4 11 -10z m193 -10 c5 -4 3 -11 -5 -15 -7 -5 -10 -4 -5 0 4 5 -5 15 -20 22
-26 12 -26 12 -3 7 14 -4 29 -10 33 -14z m-43 -39 c0 -5 -9 -19 -21 -32 l-20
-24 16 27 c9 15 13 33 9 39 -4 8 -3 9 4 5 7 -4 12 -11 12 -15z m-160 -29 c0
-5 -7 -9 -15 -9 -8 0 -12 4 -9 9 3 4 9 8 15 8 5 0 9 -4 9 -8z m65 -22 c4 -6
10 -8 14 -6 4 3 13 0 21 -6 13 -8 12 -9 -1 -5 -9 3 -20 2 -25 -1 -5 -4 -8 -5
-7 -3 2 2 -5 10 -15 17 -9 8 -12 14 -5 14 6 0 15 -5 18 -10z m125 -15 c0 -2
-9 -3 -19 -2 -11 0 -18 5 -15 9 4 6 34 0 34 -7z m-140 -19 c0 -3 -4 -8 -10
-11 -5 -3 -10 -1 -10 4 0 6 5 11 10 11 6 0 10 -2 10 -4z m-50 -51 c-5 -7 -7
-15 -3 -18 3 -4 1 -7 -5 -7 -6 0 -10 8 -9 18 0 10 7 19 14 19 9 0 10 -4 3 -12z
m168 -40 c-3 -3 -9 2 -12 12 -6 14 -5 15 5 6 7 -7 10 -15 7 -18z m-138 -18 c0
-2 -8 -11 -18 -20 -15 -14 -19 -15 -19 -2 0 8 4 12 8 9 4 -2 10 0 14 6 6 10
15 14 15 7z m154 -18 c3 -3 -4 -5 -14 -6 -11 -1 -20 2 -20 7 0 8 25 8 34 -1z"/>
<path d="M138 654 c-87 -27 -139 -102 -132 -193 4 -59 21 -95 58 -130 25 -24
26 -24 48 -5 13 10 17 12 11 4 -17 -19 -16 -33 1 -27 8 3 16 1 19 -6 5 -17 98
-12 133 6 45 23 80 67 98 120 13 40 14 55 4 93 -17 63 -67 118 -125 138 -55
19 -54 19 -115 0z m57 -24 c-4 -7 3 -8 21 -4 16 4 25 3 21 -3 -3 -5 -24 -10
-47 -11 -27 -2 -39 1 -35 8 3 6 10 8 15 5 5 -3 11 -1 15 5 3 5 8 10 11 10 3 0
2 -5 -1 -10z m96 -29 c7 11 9 11 9 -3 0 -22 -10 -23 -36 -2 -10 8 -13 13 -6 9
6 -3 13 0 13 7 1 7 4 4 6 -6 4 -15 7 -16 14 -5z m-186 -26 c-19 -20 -35 -40
-35 -45 0 -5 -7 -7 -15 -3 -15 5 -12 18 3 18 4 0 21 15 39 33 17 17 34 32 38
32 3 0 -10 -16 -30 -35z m99 7 c2 -4 -5 -9 -17 -9 -17 -2 -19 0 -7 7 18 12 18
12 24 2z m-144 -83 c0 -4 -7 -6 -15 -3 -8 4 -15 10 -15 15 0 4 7 6 15 3 8 -4
15 -10 15 -15z m-3 -41 c0 -7 4 -22 7 -33 5 -13 2 -11 -7 5 -9 14 -13 28 -11
32 7 11 11 10 11 -4z m293 8 c0 -3 -4 -8 -10 -11 -5 -3 -10 -1 -10 4 0 6 5 11
10 11 6 0 10 -2 10 -4z m-101 -131 c0 -5 -6 -9 -11 -7 -6 1 -16 -2 -23 -8 -10
-9 -13 -7 -10 7 2 10 4 19 4 19 5 7 41 -4 40 -11z m-94 -5 c-3 -5 3 -10 14
-10 12 0 21 -4 21 -8 0 -12 -34 -11 -42 2 -7 10 -2 26 8 26 3 0 2 -4 -1 -10z"/>
<path d="M472 655 c-9 -15 -8 -185 1 -185 5 0 5 -5 1 -12 -9 -15 -13 -144 -5
-156 11 -16 51 -20 65 -7 7 8 17 11 21 7 4 -4 5 21 2 55 l-5 62 37 -1 c53 -1
100 27 117 69 46 109 -15 177 -159 178 -38 0 -72 -4 -75 -10z"/>
<path d="M809 663 c-1 -4 -3 -90 -4 -190 -2 -164 3 -209 18 -170 4 8 6 7 6 -3
1 -19 118 -22 125 -3 3 6 -3 12 -12 12 -36 1 -52 5 -47 10 9 9 35 10 35 1 0
-4 10 -6 22 -2 17 4 20 2 15 -11 -6 -17 -5 -18 36 -21 44 -3 65 53 30 80 -20
15 -37 18 -30 7 4 -6 -66 -8 -103 -4 -3 1 -6 14 -6 31 -2 29 -1 29 60 32 33 2
61 8 62 13 0 6 4 19 9 29 14 33 -28 58 -86 52 -36 -4 -48 -2 -53 10 -4 9 -2
12 5 8 8 -4 9 1 4 15 -4 14 -2 21 7 22 7 0 21 2 31 4 9 2 17 -1 17 -7 0 -6 8
-7 18 -3 9 4 28 8 42 10 39 3 40 4 40 28 0 28 -34 64 -45 47 -3 -5 -11 -7 -17
-4 -16 10 -78 12 -84 2 -3 -4 -15 -3 -27 3 -16 9 -22 9 -25 1 -3 -9 -9 -9 -23
-2 -10 6 -20 7 -20 3z m148 -29 c-3 -3 -12 -4 -19 -1 -8 3 -5 6 6 6 11 1 17
-2 13 -5z m-87 -7 c0 -2 -10 -12 -22 -23 l-23 -19 19 23 c18 21 26 27 26 19z
m123 -18 c-8 -8 -16 -8 -30 0 -16 9 -14 10 12 11 21 0 26 -3 18 -11z m-129
-82 c-3 -9 -10 -17 -15 -17 -14 0 -11 18 4 23 9 3 9 8 -2 23 -14 18 -14 18 2
3 11 -9 15 -22 11 -32z m77 -60 c-10 -9 -11 -8 -5 6 3 10 9 15 12 12 3 -3 0
-11 -7 -18z m-31 -2 c0 -7 -30 -13 -34 -7 -3 4 4 9 15 9 10 1 19 0 19 -2z m85
-133 c-3 -3 -11 0 -18 7 -9 10 -8 11 6 5 10 -3 15 -9 12 -12z"/>
<path d="M1590 660 c-12 -7 -15 -36 -17 -142 -1 -128 -2 -133 -25 -145 -12 -7
-30 -13 -39 -13 -42 0 -46 -56 -5 -65 41 -9 51 -9 81 -1 33 8 77 44 70 57 -3
4 -1 10 5 14 12 7 14 264 2 282 -10 17 -54 25 -72 13z m30 -114 c0 -3 -4 -8
-10 -11 -5 -3 -10 -1 -10 4 0 6 5 11 10 11 6 0 10 -2 10 -4z m10 -72 c0 -8 -5
-12 -10 -9 -6 4 -8 11 -5 16 9 14 15 11 15 -7z m-5 -66 c-4 -37 -4 -38 -15
-38 -7 0 -7 6 0 20 6 11 8 20 5 20 -4 0 -3 5 0 10 10 16 12 12 10 -12z"/>
<path d="M1833 664 c-7 -3 -13 -13 -13 -22 0 -13 -2 -14 -9 -4 -6 10 -15 6
-35 -18 -14 -17 -24 -36 -20 -41 3 -5 1 -9 -5 -9 -6 0 -6 -11 1 -32 13 -38 36
-68 53 -68 20 0 95 -59 95 -75 0 -21 -46 -38 -70 -25 -29 16 -58 12 -70 -9
-22 -41 53 -83 132 -75 58 7 97 47 100 104 2 51 -21 83 -82 117 -81 46 -83 48
-65 67 20 20 38 20 75 1 28 -14 31 -14 50 5 37 37 -1 74 -88 85 -20 2 -43 2
-49 -1z m47 -22 c0 -5 -7 -9 -15 -9 -8 0 -15 4 -15 9 0 4 7 8 15 8 8 0 15 -4
15 -8z m-80 -32 c-10 -6 -11 -10 -2 -10 6 0 12 -5 12 -11 0 -8 -5 -8 -15 1
-16 13 -11 30 8 30 7 0 6 -4 -3 -10z m144 -1 c-4 -7 -44 0 -44 7 0 2 11 3 24
2 14 -1 23 -5 20 -9z m-120 -118 c-7 -7 -33 33 -34 49 0 8 8 2 19 -15 10 -16
17 -32 15 -34z m141 -69 c-3 -3 -11 0 -18 7 -9 10 -8 11 6 5 10 -3 15 -9 12
-12z m0 -53 c2 -9 -3 -16 -10 -16 -8 0 -13 9 -12 19 2 21 19 19 22 -3z m-128
-31 c4 -7 8 -22 10 -33 1 -11 -1 -14 -3 -8 -3 7 -4 15 -2 19 2 3 -10 12 -27
19 -26 12 -27 13 -8 14 12 1 25 -5 30 -11z m88 -16 c-3 -3 -11 0 -18 7 -9 10
-8 11 6 5 10 -3 15 -9 12 -12z"/>
</g>
</svg>
